# xmcd
#
# Track frame offsets: 
#        150
#        16246
#        29423
#        42722
#        58115
#        69688
#        88073
#        102823
#        117232
#        137364
#
# Disc length: 2127 seconds
#
# Revision: 0
# Processed by: cddbd v1.5.2PL0 Copyright (c) Steve Scherf et al.
# Submitted via: ExactAudioCopy v1.3
#
DISCID=87084d0a
DTITLE=Benny Turner and Cash McCall - Going Back Home
DYEAR=2019
DGENRE=Blues
TTITLE0=Got To Find A Way
TTITLE1=Spoonful
TTITLE2=Poison Ivy
TTITLE3=Money
TTITLE4=Shake Your Money Maker
TTITLE5=It Hurts Me Too
TTITLE6=It's A Man Down There
TTITLE7=The Dirty Dozens
TTITLE8=Built For Comfort
TTITLE9=Bring It On Home
EXTD=
EXTT0=
EXTT1=
EXTT2=
EXTT3=
EXTT4=
EXTT5=
EXTT6=
EXTT7=
EXTT8=
EXTT9=
PLAYORDER=
